{"title":"MYLENE FARMER---Agnus Dei (Videoclips Remakes)","uid":8205124,"size":233472146,"categoryP":"audio","categoryS":"music","magnet":"?xt=urn:btih:900b27f2d87bc7e06299afcb536f262685aaa1db&amp;dn=MYLENE+FARMER---Agnus+Dei+%28Videoclips+Remakes%29&amp;tr=udp%3A%2F%2Ftracker.openbittorrent.com%3A80&amp;tr=udp%3A%2F%2Fopen.demonii.com%3A1337&amp;tr=udp%3A%2F%2Ftracker.coppersurfer.tk%3A6969&amp;tr=udp%3A%2F%2Fexodus.desync.com%3A6969","seeders":1,"leechers":0,"uploader":null,"files":-1,"time":1362103661,"description":"Format                                   : AVI\nFormat/Info                              : Audio Video Interleave\nFile size                                : 223 MiB\nDuration                                 : 5mn 43s\nOverall bit rate                         : 5 432 Kbps\nWriting library                          : TMPGEnc 4.0 XPress Version. 4.7.7.307\n\nVideo\nID                                       : 0\nFormat                                   : MPEG-4 Visual\nFormat profile                           : Advanced Simple@L5\nFormat settings, BVOP                    : 2\nFormat settings, QPel                    : No\nFormat settings, GMC                     : No warppoints\nFormat settings, Matrix                  : Default (H.263)\nMuxing mode                              : Packed bitstream\nCodec ID                                 : XVID\nCodec ID/Hint                            : XviD\nDuration                                 : 5mn 43s\nBit rate                                 : 3 880 Kbps\nWidth                                    : 1 280 pixels\nHeight                                   : 720 pixels\nDisplay aspect ratio                     : 16:9\nFrame rate                               : 30.000 fps\nColor space                              : YUV\nChroma subsampling                       : 4:2:0\nBit depth                                : 8 bits\nScan type                                : Progressive\nCompression mode                         : Lossy\nBits/(Pixel*Frame)                       : 0.140\nStream size                              : 159 MiB (71%)\nWriting library                          : XviD 64\n\nAudio\nID                                       : 1\nFormat                                   : PCM\nFormat settings, Endianness              : Little\nFormat settings, Sign                    : Signed\nCodec ID                                 : 1\nDuration                                 : 5mn 43s\nBit rate mode                            : Constant\nBit rate                                 : 1 536 Kbps\nChannel(s)                               : 2 channels\nSampling rate                            : 48.0 KHz\nBit depth                                : 16 bits\nStream size                              : 63.0 MiB (28%)\nInterleave, duration                     : 33 ms (1.00 video frame)\nInterleave, preload duration             : 499 ms\n\n","torrent":{"xt":"urn:btih:900b27f2d87bc7e06299afcb536f262685aaa1db","amp;dn":"MYLENE+FARMER---Agnus+Dei+%28Videoclips+Remakes%29","amp;tr":["udp%3A%2F%2Ftracker.openbittorrent.com%3A80","udp%3A%2F%2Fopen.demonii.com%3A1337","udp%3A%2F%2Ftracker.coppersurfer.tk%3A6969","udp%3A%2F%2Fexodus.desync.com%3A6969"],"infoHash":"900b27f2d87bc7e06299afcb536f262685aaa1db","infoHashBuffer":{"type":"Buffer","data":[144,11,39,242,216,123,199,224,98,153,175,203,83,111,38,38,133,170,161,219]},"announce":[],"urlList":[]}}